<svg height="512pt" viewBox="0 0 512 512" width="512pt" xmlns="http://www.w3.org/2000/svg"><path d="m34.132812 349.867188h-8.53125c-9.425781 0-17.066406-7.640626-17.066406-17.066407v-307.199219c0-9.425781 7.640625-17.066406 17.066406-17.066406h460.796876c9.425781 0 17.066406 7.640625 17.066406 17.066406v307.199219c0 9.425781-7.640625 17.066407-17.066406 17.066407zm0 0" fill="#d4e1f4"/><path d="m32.367188 349.867188h-7.945313c-9.09375-.339844-16.199219-7.972657-15.886719-17.066407v-307.199219c-.3125-9.097656 6.792969-16.730468 15.886719-17.066406h429.023437c9.09375.335938 16.199219 7.96875 15.886719 17.066406v307.199219c.3125 9.09375-6.792969 16.726563-15.886719 17.066407zm0 0" fill="#e3e7f2"/><path d="m85.332031 230.398438h341.335938c9.425781 0 17.066406 7.640624 17.066406 17.066406v238.933594c0 9.425781-7.640625 17.066406-17.066406 17.066406h-341.335938c-9.425781 0-17.066406-7.640625-17.066406-17.066406v-238.933594c0-9.425782 7.640625-17.066406 17.066406-17.066406zm0 0" fill="#d4e1f4"/><path d="m85.332031 230.398438h315.734375c9.425782 0 17.066406 7.640624 17.066406 17.066406v238.933594c0 9.425781-7.640624 17.066406-17.066406 17.066406h-315.734375c-9.425781 0-17.066406-7.640625-17.066406-17.066406v-238.933594c0-9.425782 7.640625-17.066406 17.066406-17.066406zm0 0" fill="#e3e7f2"/><path d="m443.734375 247.464844v51.203125h-375.46875v-51.203125c.027344-9.414063 7.652344-17.035156 17.066406-17.066406h341.335938c9.414062.03125 17.039062 7.652343 17.066406 17.066406zm0 0" fill="#a4c2f7"/><path d="m418.132812 247.464844v51.203125h-349.867187v-51.203125c-.28125-9.089844 6.820313-16.707032 15.90625-17.066406h318.054687c9.089844.359374 16.191407 7.976562 15.90625 17.066406zm0 0" fill="#d4e1f4"/><path d="m503.464844 25.601562v51.199219h-494.929688v-51.199219c.027344-9.414062 7.652344-17.039062 17.066406-17.066406h460.796876c9.414062.027344 17.039062 7.652344 17.066406 17.066406zm0 0" fill="#a4c2f7"/><path d="m469.332031 25.601562v51.199219h-460.796875v-51.199219c-.289062-9.089843 6.804688-16.707031 15.886719-17.066406h429.023437c9.082032.359375 16.175782 7.976563 15.886719 17.066406zm0 0" fill="#d4e1f4"/><path d="m213.332031 368.144531v65.84375c.003907 3.371094 1.75 6.503907 4.621094 8.277344 2.867187 1.773437 6.453125 1.933594 9.46875.425781l65.859375-32.921875c3.300781-1.644531 5.382812-5.015625 5.382812-8.703125s-2.082031-7.058594-5.382812-8.703125l-65.859375-32.921875c-3.015625-1.507812-6.601563-1.347656-9.46875.425782-2.871094 1.773437-4.617187 4.90625-4.621094 8.277343zm0 0" fill="#e3e7f2"/><path d="m401.066406 477.867188c-2.261718 0-4.433594-.898438-6.03125-2.5l-21.027344-21.027344c-3.234374-3.347656-3.1875-8.671875.105469-11.960938 3.289063-3.292968 8.613281-3.339844 11.960938-.105468l21.027343 21.027343c2.4375 2.441407 3.167969 6.109375 1.847657 9.296875-1.320313 3.1875-4.433594 5.269532-7.882813 5.269532zm0 0" fill="#c03a2b"/><path d="m395.273438 424.183594-46.03125-19.703125c-1.488282-.644531-3.214844-.386719-4.453126.667969-1.238281 1.050781-1.769531 2.714843-1.375 4.289062l13.160157 52.609375c.371093 1.488281 1.515625 2.664063 2.996093 3.074219 1.480469.414062 3.066407-.003906 4.15625-1.085938l32.886719-32.886718c1.011719-1.003907 1.457031-2.441407 1.1875-3.839844-.269531-1.398438-1.21875-2.570313-2.527343-3.125zm0 0" fill="#e3e7f2"/><path d="m110.933594 264.535156c0 4.710938-3.820313 8.53125-8.535156 8.53125-4.710938 0-8.53125-3.820312-8.53125-8.53125 0-4.714844 3.820312-8.535156 8.53125-8.535156 4.714843 0 8.535156 3.820312 8.535156 8.535156zm0 0" fill="#428dff"/><path d="m145.066406 264.535156c0 4.710938-3.820312 8.53125-8.53125 8.53125-4.714844 0-8.535156-3.820312-8.535156-8.53125 0-4.714844 3.820312-8.535156 8.535156-8.535156 4.710938 0 8.53125 3.820312 8.53125 8.535156zm0 0" fill="#428dff"/><path d="m179.199219 264.535156c0 4.710938-3.820313 8.53125-8.53125 8.53125-4.714844 0-8.535157-3.820312-8.535157-8.53125 0-4.714844 3.820313-8.535156 8.535157-8.535156 4.710937 0 8.53125 3.820312 8.53125 8.535156zm0 0" fill="#428dff"/><path d="m51.199219 42.667969c0 4.710937-3.820313 8.53125-8.53125 8.53125-4.714844 0-8.535157-3.820313-8.535157-8.53125 0-4.714844 3.820313-8.535157 8.535157-8.535157 4.710937 0 8.53125 3.820313 8.53125 8.535157zm0 0" fill="#428dff"/><path d="m85.332031 42.667969c0 4.710937-3.820312 8.53125-8.53125 8.53125-4.714843 0-8.535156-3.820313-8.535156-8.53125 0-4.714844 3.820313-8.535157 8.535156-8.535157 4.710938 0 8.53125 3.820313 8.53125 8.535157zm0 0" fill="#428dff"/><path d="m119.464844 42.667969c0 4.710937-3.820313 8.53125-8.53125 8.53125-4.714844 0-8.535156-3.820313-8.535156-8.53125 0-4.714844 3.820312-8.535157 8.535156-8.535157 4.710937 0 8.53125 3.820313 8.53125 8.535157zm0 0" fill="#428dff"/><path d="m85.332031 503.464844h25.601563c-9.425782 0-17.066406-7.640625-17.066406-17.066406v-136.53125h-25.601563v136.53125c0 9.425781 7.640625 17.066406 17.066406 17.066406zm0 0" fill="#fff"/><path d="m24.421875 349.867188h25.601563c-9.09375-.339844-16.203126-7.972657-15.890626-17.066407v-307.199219c-.3125-9.097656 6.796876-16.730468 15.890626-17.066406h-25.601563c-9.09375.335938-16.199219 7.96875-15.886719 17.066406v307.199219c-.3125 9.09375 6.792969 16.726563 15.886719 17.066407zm0 0" fill="#fff"/><g fill="#428dff"><path d="m486.398438 0h-460.796876c-14.140624 0-25.601562 11.460938-25.601562 25.601562v307.199219c0 14.136719 11.460938 25.597657 25.601562 25.597657h8.53125c4.714844 0 8.535157-3.820313 8.535157-8.53125 0-4.714844-3.820313-8.535157-8.535157-8.535157h-8.53125c-4.714843 0-8.535156-3.820312-8.535156-8.53125v-247.46875h477.867188v247.46875c0 4.710938-3.820313 8.53125-8.535156 8.53125h-8.53125c-4.714844 0-8.535157 3.820313-8.535157 8.535157 0 4.710937 3.820313 8.53125 8.535157 8.53125h8.53125c14.140624 0 25.601562-11.460938 25.601562-25.597657v-307.199219c0-14.140624-11.460938-25.601562-25.601562-25.601562zm-469.332032 68.265625v-42.664063c0-4.714843 3.820313-8.535156 8.535156-8.535156h460.796876c4.714843 0 8.535156 3.820313 8.535156 8.535156v42.664063zm0 0"/><path d="m85.332031 221.867188c-14.136719 0-25.597656 11.460937-25.597656 25.597656v238.933594c0 14.140624 11.460937 25.601562 25.597656 25.601562h341.335938c14.136719 0 25.597656-11.460938 25.597656-25.601562v-238.933594c0-14.136719-11.460937-25.597656-25.597656-25.597656zm341.335938 273.066406h-341.335938c-4.710937 0-8.53125-3.820313-8.53125-8.535156v-179.199219h358.398438v179.199219c0 4.714843-3.820313 8.535156-8.53125 8.535156zm8.53125-247.46875v42.667968h-358.398438v-42.667968c0-4.710938 3.820313-8.53125 8.53125-8.53125h341.335938c4.710937 0 8.53125 3.820312 8.53125 8.53125zm0 0"/><path d="m42.667969 119.464844h426.664062c4.714844 0 8.535157-3.820313 8.535157-8.53125 0-4.714844-3.820313-8.535156-8.535157-8.535156h-426.664062c-4.714844 0-8.535157 3.820312-8.535157 8.535156 0 4.710937 3.820313 8.53125 8.535157 8.53125zm0 0"/><path d="m42.667969 162.132812h426.664062c4.714844 0 8.535157-3.820312 8.535157-8.53125 0-4.714843-3.820313-8.535156-8.535157-8.535156h-426.664062c-4.714844 0-8.535157 3.820313-8.535157 8.535156 0 4.710938 3.820313 8.53125 8.535157 8.53125zm0 0"/><path d="m42.667969 204.800781h426.664062c4.714844 0 8.535157-3.820312 8.535157-8.535156 0-4.710937-3.820313-8.53125-8.535157-8.53125h-426.664062c-4.714844 0-8.535157 3.820313-8.535157 8.53125 0 4.714844 3.820313 8.535156 8.535157 8.535156zm0 0"/><path d="m297.097656 384.726562-65.84375-32.914062c-5.664062-2.84375-12.394531-2.546875-17.785156.78125s-8.671875 9.214844-8.667969 15.550781v65.84375c-.015625 6.339844 3.265625 12.234375 8.660157 15.5625 5.394531 3.332031 12.128906 3.621094 17.792968.769531l65.851563-32.914062c6.1875-3.09375 10.097656-9.417969 10.097656-16.339844s-3.910156-13.246094-10.097656-16.339844zm-7.628906 17.414063-65.894531 32.914063c-.359375.222656-.8125.222656-1.171875 0-.367188-.207032-.585938-.601563-.570313-1.023438v-65.886719c-.015625-.421875.203125-.816406.570313-1.023437.203125-.125.433594-.1875.667968-.1875.1875 0 .375.050781.539063.144531l65.859375 32.914063c.40625.203124.664062.621093.664062 1.074218 0 .457032-.257812.871094-.664062 1.074219zm0 0"/><path d="m391.800781 448 15.300781-15.300781c2-2 2.878907-4.867188 2.34375-7.644531-.535156-2.78125-2.414062-5.113282-5.015624-6.230469l-59.734376-25.601563c-2.980468-1.277344-6.425781-.753906-8.894531 1.347656-2.46875 2.105469-3.53125 5.425782-2.746093 8.570313l17.066406 68.265625c.742187 2.976562 3.023437 5.324219 5.976562 6.152344.75.207031 1.523438.308594 2.300782.308594 2.265624 0 4.433593-.898438 6.035156-2.5l15.300781-15.300782 15.300781 15.300782c3.347656 3.234374 8.667969 3.1875 11.960938-.105469 3.292968-3.289063 3.335937-8.613281.105468-11.960938zm-28.777343 4.640625-9.238282-36.957031 32.339844 13.859375zm0 0"/></g></svg>